<svg xmlns="http://www.w3.org/2000/svg" xmlns:xlink="http://www.w3.org/1999/xlink" width="392" zoomAndPan="magnify" viewBox="0 0 294 293.999989" height="392" preserveAspectRatio="xMidYMid meet" version="1.0"><path fill="#ffffff" d="M 161.070312 245.636719 C 164.589844 243.835938 167.410156 242.410156 168.636719 241.800781 C 188.277344 232.066406 216.53125 214.433594 234.664062 202.285156 L 265.210938 179.785156 C 277.175781 169.894531 286.730469 158.5 284.683594 141.90625 C 282.585938 124.929688 269.84375 116 260.011719 108.5 C 242.453125 95.101562 226.988281 85.175781 208.003906 73.820312 C 202.773438 70.691406 195.054688 66.582031 190.261719 62.871094 C 177.027344 56.445312 164.605469 48.886719 150.890625 42.0625 C 143.910156 38.589844 137.652344 36.042969 130.503906 32.445312 C 113.605469 23.945312 75.425781 8.183594 58.785156 8.84375 C 40.109375 9.585938 23.484375 22.113281 20.28125 37.882812 C 9.554688 90.636719 10.878906 171.003906 17.539062 226.449219 C 20.28125 249.28125 20.335938 265.976562 34.171875 277.695312 C 50.070312 291.152344 67.957031 287.089844 86.796875 279.960938 L 119.332031 266.316406 L 72.964844 179.140625 C 64.046875 162.367188 61.15625 146.375 64.359375 131.175781 C 66.1875 122.421875 70.058594 114.167969 75.933594 106.429688 C 81.808594 98.695312 88.867188 92.636719 97.066406 88.277344 C 113.390625 79.59375 130.09375 77.769531 147.121094 82.785156 C 164.152344 87.800781 176.914062 98.257812 185.398438 114.203125 C 193.640625 129.703125 195.191406 146.074219 190.066406 163.257812 C 184.941406 180.441406 174.785156 193.042969 159.550781 201.148438 C 157.078125 202.464844 153.292969 204.191406 148.203125 206.273438 L 124.148438 161.046875 C 128.910156 161.875 132.976562 161.394531 136.347656 159.597656 C 140.613281 157.332031 143.40625 153.824219 144.769531 149.066406 C 146.128906 144.308594 145.691406 139.785156 143.402344 135.480469 C 141.09375 131.136719 137.570312 128.304688 132.8125 126.945312 C 128.015625 125.605469 123.476562 126.097656 119.054688 128.449219 C 108.5 134.066406 107.101562 144.171875 114.890625 158.8125 L 161.066406 245.628906 Z M 161.070312 245.636719 " fill-opacity="1" fill-rule="evenodd"/></svg>